<svg version="1.1" width="1605.39" height="1330.78" viewBox="0 0 1605.39 1330.78" xmlns="http://www.w3.org/2000/svg" xmlns:xlink="http://www.w3.org/1999/xlink" overflow="visible"><defs></defs><g><rect x="589.12" y="643.2" width="56.51" height="50.23" stroke="#000000" stroke-miterlimit="10" fill="#FFFFFF"/><rect x="572.9" y="719.91" width="88.94" height="28.14" stroke="#000000" stroke-miterlimit="10" fill="#FFFFFF"/><g><path d=" M 589.12 693.17 L 570.73 721.89 L 664.01 721.89 L 645.62 693.17 Z" stroke="#000000" stroke-miterlimit="10" fill="#FFFFFF"/><path d=" M 661.65 720.17 L 573.09 720.17 C 571.13 720.17 569.53 721.76 569.53 723.73 L 569.53 723.73 C 569.53 725.69 571.12 727.29 573.09 727.29 L 661.65 727.29 C 663.61 727.29 665.21 725.7 665.21 723.73 L 665.21 723.73 C 665.21 721.76 663.61 720.17 661.65 720.17 Z" stroke="#000000" stroke-miterlimit="10" fill="#FFFFFF"/></g><path d=" M 645.48 639.64 L 589.27 639.64 C 587.31 639.64 585.71 641.23 585.71 643.2 L 585.71 643.2 C 585.71 645.16 587.3 646.76 589.27 646.76 L 645.48 646.76 C 647.44 646.76 649.04 645.17 649.04 643.2 L 649.04 643.2 C 649.03 641.23 647.44 639.64 645.48 639.64 Z" stroke="#000000" stroke-miterlimit="10" fill="#FFFFFF"/><path d=" M 661.65 744.49 L 573.09 744.49 C 571.13 744.49 569.53 746.08 569.53 748.05 L 569.53 748.05 C 569.53 750.01 571.12 751.61 573.09 751.61 L 661.65 751.61 C 663.61 751.61 665.21 750.02 665.21 748.05 L 665.21 748.05 C 665.21 746.09 663.61 744.49 661.65 744.49 Z" stroke="#000000" stroke-miterlimit="10" fill="#FFFFFF"/></g><g><rect x="920.59" y="643.2" width="56.51" height="50.23" stroke="#000000" stroke-miterlimit="10" fill="#FFFFFF"/><rect x="904.37" y="719.91" width="88.94" height="28.14" stroke="#000000" stroke-miterlimit="10" fill="#FFFFFF"/><g><path d=" M 920.59 693.17 L 902.2 721.89 L 995.48 721.89 L 977.1 693.17 Z" stroke="#000000" stroke-miterlimit="10" fill="#FFFFFF"/><path d=" M 993.12 720.17 L 904.56 720.17 C 902.6 720.17 901 721.76 901 723.73 L 901 723.73 C 901 725.69 902.59 727.29 904.56 727.29 L 993.12 727.29 C 995.08 727.29 996.68 725.7 996.68 723.73 L 996.68 723.73 C 996.68 721.76 995.09 720.17 993.12 720.17 Z" stroke="#000000" stroke-miterlimit="10" fill="#FFFFFF"/></g><path d=" M 976.95 639.64 L 920.74 639.64 C 918.78 639.64 917.18 641.23 917.18 643.2 L 917.18 643.2 C 917.18 645.16 918.77 646.76 920.74 646.76 L 976.95 646.76 C 978.91 646.76 980.51 645.17 980.51 643.2 L 980.51 643.2 C 980.51 641.23 978.91 639.64 976.95 639.64 Z" stroke="#000000" stroke-miterlimit="10" fill="#FFFFFF"/><path d=" M 993.12 744.49 L 904.56 744.49 C 902.6 744.49 901 746.08 901 748.05 L 901 748.05 C 901 750.01 902.59 751.61 904.56 751.61 L 993.12 751.61 C 995.08 751.61 996.68 750.02 996.68 748.05 L 996.68 748.05 C 996.68 746.09 995.09 744.49 993.12 744.49 Z" stroke="#000000" stroke-miterlimit="10" fill="#FFFFFF"/></g><g><rect x="370.65" y="871.31" width="26.92" height="273.57" stroke="#000000" stroke-miterlimit="10" fill="#4D4D4D"/><rect x="507.61" y="862.34" width="26.92" height="281.76" stroke="#000000" stroke-miterlimit="10" fill="#4D4D4D"/><rect x="640.06" y="862.38" width="26.92" height="281.76" stroke="#000000" stroke-miterlimit="10" fill="#4D4D4D"/><rect x="774.72" y="862.38" width="26.92" height="281.76" stroke="#000000" stroke-miterlimit="10" fill="#4D4D4D"/><rect x="908.42" y="861.9" width="26.92" height="281.76" stroke="#000000" stroke-miterlimit="10" fill="#4D4D4D"/><rect x="1042.1" y="861.9" width="26.92" height="281.76" stroke="#000000" stroke-miterlimit="10" fill="#4D4D4D"/><rect x="1180.3" y="862.9" width="26.92" height="281.76" stroke="#000000" stroke-miterlimit="10" fill="#4D4D4D"/></g><g><g><rect x="218.94" y="899.4" width="26.92" height="23.93" stroke="#000000" stroke-miterlimit="10" fill="#FFFFFF"/><rect x="211.22" y="873.38" width="42.37" height="13.41" stroke="#000000" stroke-miterlimit="10" fill="#FFFFFF"/><g><path d=" M 218.94 899.53 L 210.18 885.85 L 254.62 885.85 L 245.86 899.53 Z" stroke="#000000" stroke-miterlimit="10" fill="#FFFFFF"/><path d=" M 253.5 886.67 L 211.31 886.67 C 210.37 886.67 209.62 885.91 209.62 884.98 L 209.62 884.98 C 209.62 884.04 210.38 883.29 211.31 883.29 L 253.5 883.29 C 254.44 883.29 255.19 884.05 255.19 884.98 L 255.19 884.98 C 255.19 885.91 254.43 886.67 253.5 886.67 Z" stroke="#000000" stroke-miterlimit="10" fill="#FFFFFF"/></g><path d=" M 245.79 925.03 L 219.01 925.03 C 218.07 925.03 217.32 924.27 217.32 923.34 L 217.32 923.34 C 217.32 922.4 218.08 921.65 219.01 921.65 L 245.79 921.65 C 246.73 921.65 247.48 922.41 247.48 923.34 L 247.48 923.34 C 247.49 924.27 246.73 925.03 245.79 925.03 Z" stroke="#000000" stroke-miterlimit="10" fill="#FFFFFF"/><path d=" M 253.5 875.08 L 211.31 875.08 C 210.37 875.08 209.62 874.32 209.62 873.39 L 209.62 873.39 C 209.62 872.45 210.38 871.7 211.31 871.7 L 253.5 871.7 C 254.44 871.7 255.19 872.46 255.19 873.39 L 255.19 873.39 C 255.19 874.32 254.43 875.08 253.5 875.08 Z" stroke="#000000" stroke-miterlimit="10" fill="#FFFFFF"/></g><g><rect x="218.94" y="923.33" width="26.92" height="23.93" stroke="#000000" stroke-miterlimit="10" fill="#FFFFFF"/><rect x="211.22" y="959.88" width="42.37" height="13.41" stroke="#000000" stroke-miterlimit="10" fill="#FFFFFF"/><g><path d=" M 218.94 947.14 L 210.18 960.82 L 254.62 960.82 L 245.86 947.14 Z" stroke="#000000" stroke-miterlimit="10" fill="#FFFFFF"/><path d=" M 253.5 960 L 211.31 960 C 210.37 960 209.62 960.76 209.62 961.69 L 209.62 961.69 C 209.62 962.63 210.38 963.38 211.31 963.38 L 253.5 963.38 C 254.44 963.38 255.19 962.62 255.19 961.69 L 255.19 961.69 C 255.19 960.76 254.43 960 253.5 960 Z" stroke="#000000" stroke-miterlimit="10" fill="#FFFFFF"/></g><path d=" M 245.79 921.64 L 219.01 921.64 C 218.07 921.64 217.32 922.4 217.32 923.33 L 217.32 923.33 C 217.32 924.27 218.08 925.02 219.01 925.02 L 245.79 925.02 C 246.73 925.02 247.48 924.26 247.48 923.33 L 247.48 923.33 C 247.49 922.4 246.73 921.64 245.79 921.64 Z" stroke="#000000" stroke-miterlimit="10" fill="#FFFFFF"/><path d=" M 253.5 971.59 L 211.31 971.59 C 210.37 971.59 209.62 972.35 209.62 973.28 L 209.62 973.28 C 209.62 974.22 210.38 974.97 211.31 974.97 L 253.5 974.97 C 254.44 974.97 255.19 974.21 255.19 973.28 L 255.19 973.28 C 255.19 972.35 254.43 971.59 253.5 971.59 Z" stroke="#000000" stroke-miterlimit="10" fill="#FFFFFF"/></g><g><rect x="218.94" y="999.31" width="26.92" height="23.93" stroke="#000000" stroke-miterlimit="10" fill="#FFFFFF"/><rect x="211.22" y="973.29" width="42.37" height="13.41" stroke="#000000" stroke-miterlimit="10" fill="#FFFFFF"/><g><path d=" M 218.94 999.43 L 210.18 985.75 L 254.62 985.75 L 245.86 999.43 Z" stroke="#000000" stroke-miterlimit="10" fill="#FFFFFF"/><path d=" M 253.5 986.57 L 211.31 986.57 C 210.37 986.57 209.62 985.81 209.62 984.88 L 209.62 984.88 C 209.62 983.94 210.38 983.19 211.31 983.19 L 253.5 983.19 C 254.44 983.19 255.19 983.95 255.19 984.88 L 255.19 984.88 C 255.19 985.81 254.43 986.57 253.5 986.57 Z" stroke="#000000" stroke-miterlimit="10" fill="#FFFFFF"/></g><path d=" M 245.79 1024.93 L 219.01 1024.93 C 218.07 1024.93 217.32 1024.17 217.32 1023.24 L 217.32 1023.24 C 217.32 1022.3 218.08 1021.55 219.01 1021.55 L 245.79 1021.55 C 246.73 1021.55 247.48 1022.31 247.48 1023.24 L 247.48 1023.24 C 247.49 1024.17 246.73 1024.93 245.79 1024.93 Z" stroke="#000000" stroke-miterlimit="10" fill="#FFFFFF"/><path d=" M 253.5 974.98 L 211.31 974.98 C 210.37 974.98 209.62 974.22 209.62 973.29 L 209.62 973.29 C 209.62 972.35 210.38 971.6 211.31 971.6 L 253.5 971.6 C 254.44 971.6 255.19 972.36 255.19 973.29 L 255.19 973.29 C 255.19 974.22 254.43 974.98 253.5 974.98 Z" stroke="#000000" stroke-miterlimit="10" fill="#FFFFFF"/></g><g><rect x="218.94" y="1023.24" width="26.92" height="23.93" stroke="#000000" stroke-miterlimit="10" fill="#FFFFFF"/><rect x="211.22" y="1059.78" width="42.37" height="13.41" stroke="#000000" stroke-miterlimit="10" fill="#FFFFFF"/><g><path d=" M 218.94 1047.04 L 210.18 1060.72 L 254.62 1060.72 L 245.86 1047.04 Z" stroke="#000000" stroke-miterlimit="10" fill="#FFFFFF"/><path d=" M 253.5 1059.9 L 211.31 1059.9 C 210.37 1059.9 209.62 1060.66 209.62 1061.59 L 209.62 1061.59 C 209.62 1062.53 210.38 1063.28 211.31 1063.28 L 253.5 1063.28 C 254.44 1063.28 255.19 1062.52 255.19 1061.59 L 255.19 1061.59 C 255.19 1060.66 254.43 1059.9 253.5 1059.9 Z" stroke="#000000" stroke-miterlimit="10" fill="#FFFFFF"/></g><path d=" M 245.79 1021.54 L 219.01 1021.54 C 218.07 1021.54 217.32 1022.3 217.32 1023.23 L 217.32 1023.23 C 217.32 1024.17 218.08 1024.92 219.01 1024.92 L 245.79 1024.92 C 246.73 1024.92 247.48 1024.16 247.48 1023.23 L 247.48 1023.23 C 247.49 1022.3 246.73 1021.54 245.79 1021.54 Z" stroke="#000000" stroke-miterlimit="10" fill="#FFFFFF"/><path d=" M 253.5 1071.49 L 211.31 1071.49 C 210.37 1071.49 209.62 1072.25 209.62 1073.18 L 209.62 1073.18 C 209.62 1074.12 210.38 1074.87 211.31 1074.87 L 253.5 1074.87 C 254.44 1074.87 255.19 1074.11 255.19 1073.18 L 255.19 1073.18 C 255.19 1072.25 254.43 1071.49 253.5 1071.49 Z" stroke="#000000" stroke-miterlimit="10" fill="#FFFFFF"/></g><g><rect x="218.94" y="1199.13" width="26.92" height="23.93" stroke="#000000" stroke-miterlimit="10" fill="#FFFFFF"/><rect x="211.22" y="1173.11" width="42.37" height="13.41" stroke="#000000" stroke-miterlimit="10" fill="#FFFFFF"/><g><path d=" M 218.94 1199.25 L 210.18 1185.57 L 254.62 1185.57 L 245.86 1199.25 Z" stroke="#000000" stroke-miterlimit="10" fill="#FFFFFF"/><path d=" M 253.5 1186.39 L 211.31 1186.39 C 210.37 1186.39 209.62 1185.63 209.62 1184.7 L 209.62 1184.7 C 209.62 1183.76 210.38 1183.01 211.31 1183.01 L 253.5 1183.01 C 254.44 1183.01 255.19 1183.77 255.19 1184.7 L 255.19 1184.7 C 255.19 1185.63 254.43 1186.39 253.5 1186.39 Z" stroke="#000000" stroke-miterlimit="10" fill="#FFFFFF"/></g><path d=" M 245.79 1224.75 L 219.01 1224.75 C 218.07 1224.75 217.32 1223.99 217.32 1223.06 L 217.32 1223.06 C 217.32 1222.12 218.08 1221.37 219.01 1221.37 L 245.79 1221.37 C 246.73 1221.37 247.48 1222.13 247.48 1223.06 L 247.48 1223.06 C 247.49 1223.99 246.73 1224.75 245.79 1224.75 Z" stroke="#000000" stroke-miterlimit="10" fill="#FFFFFF"/><path d=" M 253.5 1174.8 L 211.31 1174.8 C 210.37 1174.8 209.62 1174.04 209.62 1173.11 L 209.62 1173.11 C 209.62 1172.17 210.38 1171.42 211.31 1171.42 L 253.5 1171.42 C 254.44 1171.42 255.19 1172.18 255.19 1173.11 L 255.19 1173.11 C 255.19 1174.04 254.43 1174.8 253.5 1174.8 Z" stroke="#000000" stroke-miterlimit="10" fill="#FFFFFF"/></g><g><rect x="218.94" y="1099.23" width="26.92" height="23.93" stroke="#000000" stroke-miterlimit="10" fill="#FFFFFF"/><rect x="211.22" y="1073.21" width="42.37" height="13.41" stroke="#000000" stroke-miterlimit="10" fill="#FFFFFF"/><g><path d=" M 218.94 1099.35 L 210.18 1085.67 L 254.62 1085.67 L 245.86 1099.35 Z" stroke="#000000" stroke-miterlimit="10" fill="#FFFFFF"/><path d=" M 253.5 1086.49 L 211.31 1086.49 C 210.37 1086.49 209.62 1085.73 209.62 1084.8 L 209.62 1084.8 C 209.62 1083.86 210.38 1083.11 211.31 1083.11 L 253.5 1083.11 C 254.44 1083.11 255.19 1083.87 255.19 1084.8 L 255.19 1084.8 C 255.19 1085.73 254.43 1086.49 253.5 1086.49 Z" stroke="#000000" stroke-miterlimit="10" fill="#FFFFFF"/></g><path d=" M 245.79 1124.85 L 219.01 1124.85 C 218.07 1124.85 217.32 1124.09 217.32 1123.16 L 217.32 1123.16 C 217.32 1122.22 218.08 1121.47 219.01 1121.47 L 245.79 1121.47 C 246.73 1121.47 247.48 1122.23 247.48 1123.16 L 247.48 1123.16 C 247.49 1124.09 246.73 1124.85 245.79 1124.85 Z" stroke="#000000" stroke-miterlimit="10" fill="#FFFFFF"/><path d=" M 253.5 1074.9 L 211.31 1074.9 C 210.37 1074.9 209.62 1074.14 209.62 1073.21 L 209.62 1073.21 C 209.62 1072.27 210.38 1071.52 211.31 1071.52 L 253.5 1071.52 C 254.44 1071.52 255.19 1072.28 255.19 1073.21 L 255.19 1073.21 C 255.19 1074.14 254.43 1074.9 253.5 1074.9 Z" stroke="#000000" stroke-miterlimit="10" fill="#FFFFFF"/></g><g><rect x="218.94" y="1123.16" width="26.92" height="23.93" stroke="#000000" stroke-miterlimit="10" fill="#FFFFFF"/><rect x="211.22" y="1159.7" width="42.37" height="13.41" stroke="#000000" stroke-miterlimit="10" fill="#FFFFFF"/><g><path d=" M 218.94 1146.96 L 210.18 1160.64 L 254.62 1160.64 L 245.86 1146.96 Z" stroke="#000000" stroke-miterlimit="10" fill="#FFFFFF"/><path d=" M 253.5 1159.82 L 211.31 1159.82 C 210.37 1159.82 209.62 1160.58 209.62 1161.51 L 209.62 1161.51 C 209.62 1162.45 210.38 1163.2 211.31 1163.2 L 253.5 1163.2 C 254.44 1163.2 255.19 1162.44 255.19 1161.51 L 255.19 1161.51 C 255.19 1160.58 254.43 1159.82 253.5 1159.82 Z" stroke="#000000" stroke-miterlimit="10" fill="#FFFFFF"/></g><path d=" M 245.79 1121.46 L 219.01 1121.46 C 218.07 1121.46 217.32 1122.22 217.32 1123.15 L 217.32 1123.15 C 217.32 1124.09 218.08 1124.84 219.01 1124.84 L 245.79 1124.84 C 246.73 1124.84 247.48 1124.08 247.48 1123.15 L 247.48 1123.15 C 247.49 1122.22 246.73 1121.46 245.79 1121.46 Z" stroke="#000000" stroke-miterlimit="10" fill="#FFFFFF"/><path d=" M 253.5 1171.41 L 211.31 1171.41 C 210.37 1171.41 209.62 1172.17 209.62 1173.1 L 209.62 1173.1 C 209.62 1174.04 210.38 1174.79 211.31 1174.79 L 253.5 1174.79 C 254.44 1174.79 255.19 1174.03 255.19 1173.1 L 255.19 1173.1 C 255.19 1172.17 254.43 1171.41 253.5 1171.41 Z" stroke="#000000" stroke-miterlimit="10" fill="#FFFFFF"/></g></g><g><g><rect x="1332.01" y="898.89" width="26.92" height="23.93" stroke="#000000" stroke-miterlimit="10" fill="#FFFFFF"/><rect x="1324.29" y="872.87" width="42.37" height="13.41" stroke="#000000" stroke-miterlimit="10" fill="#FFFFFF"/><g><path d=" M 1332.01 899.01 L 1323.25 885.33 L 1367.69 885.33 L 1358.93 899.01 Z" stroke="#000000" stroke-miterlimit="10" fill="#FFFFFF"/><path d=" M 1366.56 886.15 L 1324.37 886.15 C 1323.43 886.15 1322.68 885.39 1322.68 884.46 L 1322.68 884.46 C 1322.68 883.52 1323.44 882.77 1324.37 882.77 L 1366.56 882.77 C 1367.5 882.77 1368.25 883.53 1368.25 884.46 L 1368.25 884.46 C 1368.26 885.4 1367.5 886.15 1366.56 886.15 Z" stroke="#000000" stroke-miterlimit="10" fill="#FFFFFF"/></g><path d=" M 1358.86 924.52 L 1332.08 924.52 C 1331.14 924.52 1330.39 923.76 1330.39 922.83 L 1330.39 922.83 C 1330.39 921.89 1331.15 921.14 1332.08 921.14 L 1358.86 921.14 C 1359.8 921.14 1360.55 921.9 1360.55 922.83 L 1360.55 922.83 C 1360.55 923.76 1359.8 924.52 1358.86 924.52 Z" stroke="#000000" stroke-miterlimit="10" fill="#FFFFFF"/><path d=" M 1366.56 874.57 L 1324.37 874.57 C 1323.43 874.57 1322.68 873.81 1322.68 872.88 L 1322.68 872.88 C 1322.68 871.94 1323.44 871.19 1324.37 871.19 L 1366.56 871.19 C 1367.5 871.19 1368.25 871.95 1368.25 872.88 L 1368.25 872.88 C 1368.26 873.81 1367.5 874.57 1366.56 874.57 Z" stroke="#000000" stroke-miterlimit="10" fill="#FFFFFF"/></g><g><rect x="1332.01" y="922.82" width="26.92" height="23.93" stroke="#000000" stroke-miterlimit="10" fill="#FFFFFF"/><rect x="1324.29" y="959.36" width="42.37" height="13.41" stroke="#000000" stroke-miterlimit="10" fill="#FFFFFF"/><g><path d=" M 1332.01 946.63 L 1323.25 960.31 L 1367.69 960.31 L 1358.93 946.63 Z" stroke="#000000" stroke-miterlimit="10" fill="#FFFFFF"/><path d=" M 1366.56 959.49 L 1324.37 959.49 C 1323.43 959.49 1322.68 960.25 1322.68 961.18 L 1322.68 961.18 C 1322.68 962.12 1323.44 962.87 1324.37 962.87 L 1366.56 962.87 C 1367.5 962.87 1368.25 962.11 1368.25 961.18 L 1368.25 961.18 C 1368.26 960.25 1367.5 959.49 1366.56 959.49 Z" stroke="#000000" stroke-miterlimit="10" fill="#FFFFFF"/></g><path d=" M 1358.86 921.13 L 1332.08 921.13 C 1331.14 921.13 1330.39 921.89 1330.39 922.82 L 1330.39 922.82 C 1330.39 923.76 1331.15 924.51 1332.08 924.51 L 1358.86 924.51 C 1359.8 924.51 1360.55 923.75 1360.55 922.82 L 1360.55 922.82 C 1360.55 921.88 1359.8 921.13 1358.86 921.13 Z" stroke="#000000" stroke-miterlimit="10" fill="#FFFFFF"/><path d=" M 1366.56 971.08 L 1324.37 971.08 C 1323.43 971.08 1322.68 971.84 1322.68 972.77 L 1322.68 972.77 C 1322.68 973.71 1323.44 974.46 1324.37 974.46 L 1366.56 974.46 C 1367.5 974.46 1368.25 973.7 1368.25 972.77 L 1368.25 972.77 C 1368.26 971.83 1367.5 971.08 1366.56 971.08 Z" stroke="#000000" stroke-miterlimit="10" fill="#FFFFFF"/></g><g><rect x="1332.01" y="998.79" width="26.92" height="23.93" stroke="#000000" stroke-miterlimit="10" fill="#FFFFFF"/><rect x="1324.29" y="972.77" width="42.37" height="13.41" stroke="#000000" stroke-miterlimit="10" fill="#FFFFFF"/><g><path d=" M 1332.01 998.91 L 1323.25 985.23 L 1367.69 985.23 L 1358.93 998.91 Z" stroke="#000000" stroke-miterlimit="10" fill="#FFFFFF"/><path d=" M 1366.56 986.05 L 1324.37 986.05 C 1323.43 986.05 1322.68 985.29 1322.68 984.36 L 1322.68 984.36 C 1322.68 983.42 1323.44 982.67 1324.37 982.67 L 1366.56 982.67 C 1367.5 982.67 1368.25 983.43 1368.25 984.36 L 1368.25 984.36 C 1368.26 985.3 1367.5 986.05 1366.56 986.05 Z" stroke="#000000" stroke-miterlimit="10" fill="#FFFFFF"/></g><path d=" M 1358.86 1024.42 L 1332.08 1024.42 C 1331.14 1024.42 1330.39 1023.66 1330.39 1022.73 L 1330.39 1022.73 C 1330.39 1021.79 1331.15 1021.04 1332.08 1021.04 L 1358.86 1021.04 C 1359.8 1021.04 1360.55 1021.8 1360.55 1022.73 L 1360.55 1022.73 C 1360.55 1023.66 1359.8 1024.42 1358.86 1024.42 Z" stroke="#000000" stroke-miterlimit="10" fill="#FFFFFF"/><path d=" M 1366.56 974.47 L 1324.37 974.47 C 1323.43 974.47 1322.68 973.71 1322.68 972.78 L 1322.68 972.78 C 1322.68 971.84 1323.44 971.09 1324.37 971.09 L 1366.56 971.09 C 1367.5 971.09 1368.25 971.85 1368.25 972.78 L 1368.25 972.78 C 1368.26 973.71 1367.5 974.47 1366.56 974.47 Z" stroke="#000000" stroke-miterlimit="10" fill="#FFFFFF"/></g><g><rect x="1332.01" y="1022.72" width="26.92" height="23.93" stroke="#000000" stroke-miterlimit="10" fill="#FFFFFF"/><rect x="1324.29" y="1059.26" width="42.37" height="13.41" stroke="#000000" stroke-miterlimit="10" fill="#FFFFFF"/><g><path d=" M 1332.01 1046.53 L 1323.25 1060.21 L 1367.69 1060.21 L 1358.93 1046.53 Z" stroke="#000000" stroke-miterlimit="10" fill="#FFFFFF"/><path d=" M 1366.56 1059.39 L 1324.37 1059.39 C 1323.43 1059.39 1322.68 1060.15 1322.68 1061.08 L 1322.68 1061.08 C 1322.68 1062.02 1323.44 1062.77 1324.37 1062.77 L 1366.56 1062.77 C 1367.5 1062.77 1368.25 1062.01 1368.25 1061.08 L 1368.25 1061.08 C 1368.26 1060.15 1367.5 1059.39 1366.56 1059.39 Z" stroke="#000000" stroke-miterlimit="10" fill="#FFFFFF"/></g><path d=" M 1358.86 1021.03 L 1332.08 1021.03 C 1331.14 1021.03 1330.39 1021.79 1330.39 1022.72 L 1330.39 1022.72 C 1330.39 1023.66 1331.15 1024.41 1332.08 1024.41 L 1358.86 1024.41 C 1359.8 1024.41 1360.55 1023.65 1360.55 1022.72 L 1360.55 1022.72 C 1360.55 1021.79 1359.8 1021.03 1358.86 1021.03 Z" stroke="#000000" stroke-miterlimit="10" fill="#FFFFFF"/><path d=" M 1366.56 1070.98 L 1324.37 1070.98 C 1323.43 1070.98 1322.68 1071.74 1322.68 1072.67 L 1322.68 1072.67 C 1322.68 1073.61 1323.44 1074.36 1324.37 1074.36 L 1366.56 1074.36 C 1367.5 1074.36 1368.25 1073.6 1368.25 1072.67 L 1368.25 1072.67 C 1368.26 1071.74 1367.5 1070.98 1366.56 1070.98 Z" stroke="#000000" stroke-miterlimit="10" fill="#FFFFFF"/></g><g><rect x="1332.01" y="1198.61" width="26.92" height="23.93" stroke="#000000" stroke-miterlimit="10" fill="#FFFFFF"/><rect x="1324.29" y="1172.59" width="42.37" height="13.41" stroke="#000000" stroke-miterlimit="10" fill="#FFFFFF"/><g><path d=" M 1332.01 1198.73 L 1323.25 1185.05 L 1367.69 1185.05 L 1358.93 1198.73 Z" stroke="#000000" stroke-miterlimit="10" fill="#FFFFFF"/><path d=" M 1366.56 1185.88 L 1324.37 1185.88 C 1323.43 1185.88 1322.68 1185.12 1322.68 1184.19 L 1322.68 1184.19 C 1322.68 1183.25 1323.44 1182.5 1324.37 1182.5 L 1366.56 1182.5 C 1367.5 1182.5 1368.25 1183.26 1368.25 1184.19 L 1368.25 1184.19 C 1368.26 1185.12 1367.5 1185.88 1366.56 1185.88 Z" stroke="#000000" stroke-miterlimit="10" fill="#FFFFFF"/></g><path d=" M 1358.86 1224.24 L 1332.08 1224.24 C 1331.14 1224.24 1330.39 1223.48 1330.39 1222.55 L 1330.39 1222.55 C 1330.39 1221.61 1331.15 1220.86 1332.08 1220.86 L 1358.86 1220.86 C 1359.8 1220.86 1360.55 1221.62 1360.55 1222.55 L 1360.55 1222.55 C 1360.55 1223.48 1359.8 1224.24 1358.86 1224.24 Z" stroke="#000000" stroke-miterlimit="10" fill="#FFFFFF"/><path d=" M 1366.56 1174.29 L 1324.37 1174.29 C 1323.43 1174.29 1322.68 1173.53 1322.68 1172.6 L 1322.68 1172.6 C 1322.68 1171.66 1323.44 1170.91 1324.37 1170.91 L 1366.56 1170.91 C 1367.5 1170.91 1368.25 1171.67 1368.25 1172.6 L 1368.25 1172.6 C 1368.26 1173.53 1367.5 1174.29 1366.56 1174.29 Z" stroke="#000000" stroke-miterlimit="10" fill="#FFFFFF"/></g><g><rect x="1332.01" y="1098.71" width="26.92" height="23.93" stroke="#000000" stroke-miterlimit="10" fill="#FFFFFF"/><rect x="1324.29" y="1072.69" width="42.37" height="13.41" stroke="#000000" stroke-miterlimit="10" fill="#FFFFFF"/><g><path d=" M 1332.01 1098.83 L 1323.25 1085.15 L 1367.69 1085.15 L 1358.93 1098.83 Z" stroke="#000000" stroke-miterlimit="10" fill="#FFFFFF"/><path d=" M 1366.56 1085.97 L 1324.37 1085.97 C 1323.43 1085.97 1322.68 1085.21 1322.68 1084.28 L 1322.68 1084.28 C 1322.68 1083.34 1323.44 1082.59 1324.37 1082.59 L 1366.56 1082.59 C 1367.5 1082.59 1368.25 1083.35 1368.25 1084.28 L 1368.25 1084.28 C 1368.26 1085.22 1367.5 1085.97 1366.56 1085.97 Z" stroke="#000000" stroke-miterlimit="10" fill="#FFFFFF"/></g><path d=" M 1358.86 1124.34 L 1332.08 1124.34 C 1331.14 1124.34 1330.39 1123.58 1330.39 1122.65 L 1330.39 1122.65 C 1330.39 1121.71 1331.15 1120.96 1332.08 1120.96 L 1358.86 1120.96 C 1359.8 1120.96 1360.55 1121.72 1360.55 1122.65 L 1360.55 1122.65 C 1360.55 1123.58 1359.8 1124.34 1358.86 1124.34 Z" stroke="#000000" stroke-miterlimit="10" fill="#FFFFFF"/><path d=" M 1366.56 1074.39 L 1324.37 1074.39 C 1323.43 1074.39 1322.68 1073.63 1322.68 1072.7 L 1322.68 1072.7 C 1322.68 1071.76 1323.44 1071.01 1324.37 1071.01 L 1366.56 1071.01 C 1367.5 1071.01 1368.25 1071.77 1368.25 1072.7 L 1368.25 1072.7 C 1368.26 1073.63 1367.5 1074.39 1366.56 1074.39 Z" stroke="#000000" stroke-miterlimit="10" fill="#FFFFFF"/></g><g><rect x="1332.01" y="1122.64" width="26.92" height="23.93" stroke="#000000" stroke-miterlimit="10" fill="#FFFFFF"/><rect x="1324.29" y="1159.18" width="42.37" height="13.41" stroke="#000000" stroke-miterlimit="10" fill="#FFFFFF"/><g><path d=" M 1332.01 1146.45 L 1323.25 1160.13 L 1367.69 1160.13 L 1358.93 1146.45 Z" stroke="#000000" stroke-miterlimit="10" fill="#FFFFFF"/><path d=" M 1366.56 1159.31 L 1324.37 1159.31 C 1323.43 1159.31 1322.68 1160.07 1322.68 1161 L 1322.68 1161 C 1322.68 1161.94 1323.44 1162.69 1324.37 1162.69 L 1366.56 1162.69 C 1367.5 1162.69 1368.25 1161.93 1368.25 1161 L 1368.25 1161 C 1368.26 1160.07 1367.5 1159.31 1366.56 1159.31 Z" stroke="#000000" stroke-miterlimit="10" fill="#FFFFFF"/></g><path d=" M 1358.86 1120.95 L 1332.08 1120.95 C 1331.14 1120.95 1330.39 1121.71 1330.39 1122.64 L 1330.39 1122.64 C 1330.39 1123.58 1331.15 1124.33 1332.08 1124.33 L 1358.86 1124.33 C 1359.8 1124.33 1360.55 1123.57 1360.55 1122.64 L 1360.55 1122.64 C 1360.55 1121.71 1359.8 1120.95 1358.86 1120.95 Z" stroke="#000000" stroke-miterlimit="10" fill="#FFFFFF"/><path d=" M 1366.56 1170.9 L 1324.37 1170.9 C 1323.43 1170.9 1322.68 1171.66 1322.68 1172.59 L 1322.68 1172.59 C 1322.68 1173.53 1323.44 1174.28 1324.37 1174.28 L 1366.56 1174.28 C 1367.5 1174.28 1368.25 1173.52 1368.25 1172.59 L 1368.25 1172.59 C 1368.26 1171.66 1367.5 1170.9 1366.56 1170.9 Z" stroke="#000000" stroke-miterlimit="10" fill="#FFFFFF"/></g></g><g><rect x="4.3" y="1274.38" width="1593.06" height="55.89" stroke="#000000" stroke-miterlimit="10" fill="#FFFFFF"/><rect x="0.5" y="1265.72" width="1604.39" height="9.39" stroke="#000000" stroke-miterlimit="10" fill="#FFFFFF"/></g><g id="Layer_3_copy"><rect x="111.88" y="1210.56" width="1374.67" height="55.89" stroke="#000000" stroke-miterlimit="10" fill="#FFFFFF"/><rect x="108.6" y="1201.9" width="1384.45" height="9.39" stroke="#000000" stroke-miterlimit="10" fill="#FFFFFF"/></g><g><path d=" M 310.73 1144.88 L 279.59 1201.08 L 1297.29 1201.08 L 1266.15 1144.88 Z" stroke="#000000" stroke-miterlimit="10" fill="#FFFFFF"/></g><g id="SingleBlock_5_"><path d=" M 209.05 737.45 L 209.05 868.09 L 256.31 868.09 L 256.31 842.9 C 256.31 814.07 279.68 790.69 308.52 790.69 L 308.52 790.69 C 337.35 790.69 360.73 814.06 360.73 842.9 L 360.73 868.08 L 407.99 868.08 L 407.99 737.45 L 209.05 737.45 Z" stroke="#000000" stroke-miterlimit="10" fill="#FFFFFF"/><path d=" M 255.26 871.69 L 209.55 871.69 C 207.56 871.69 205.95 870.08 205.95 868.09 L 205.95 868.09 C 205.95 866.1 207.56 864.49 209.55 864.49 L 255.26 864.49 C 257.25 864.49 258.86 866.1 258.86 868.09 L 258.86 868.09 C 258.86 870.08 257.25 871.69 255.26 871.69 Z" stroke="#000000" stroke-miterlimit="10" fill="#FFFFFF"/><path d=" M 406.97 871.69 L 361.26 871.69 C 359.27 871.69 357.66 870.08 357.66 868.09 L 357.66 868.09 C 357.66 866.1 359.27 864.49 361.26 864.49 L 406.97 864.49 C 408.96 864.49 410.57 866.1 410.57 868.09 L 410.57 868.09 C 410.57 870.08 408.96 871.69 406.97 871.69 Z" stroke="#000000" stroke-miterlimit="10" fill="#FFFFFF"/><path d=" M 209.05 737.45 L 194.7 708.37 L 422.33 708.37 L 407.98 737.45 Z" stroke="#000000" stroke-miterlimit="10" fill="#FFFFFF"/><path d=" M 421.65 710.12 L 195.38 710.12 C 193.39 710.12 191.78 708.51 191.78 706.52 L 191.78 706.52 C 191.78 704.53 193.39 702.92 195.38 702.92 L 421.65 702.92 C 423.64 702.92 425.25 704.53 425.25 706.52 L 425.25 706.52 C 425.25 708.51 423.64 710.12 421.65 710.12 Z" stroke="#000000" stroke-miterlimit="10" fill="#FFFFFF"/><path d=" M 209.05 673.83 L 194.7 702.91 L 422.33 702.91 L 407.98 673.83 Z" stroke="#000000" stroke-miterlimit="10" fill="#FFFFFF"/><path d=" M 308.51 578.43 C 253.58 578.43 209.04 621.59 209.04 674.84 L 407.97 674.84 C 407.98 621.59 363.45 578.43 308.51 578.43 Z" stroke="#000000" stroke-miterlimit="10" fill="#FFFFFF"/><path d=" M 407.91 677.44 L 209.11 677.44 C 207.12 677.44 205.51 675.83 205.51 673.84 L 205.51 673.84 C 205.51 671.85 207.12 670.24 209.11 670.24 L 407.91 670.24 C 409.9 670.24 411.51 671.85 411.51 673.84 L 411.51 673.84 C 411.51 675.82 409.9 677.44 407.91 677.44 Z" stroke="#000000" stroke-miterlimit="10" fill="#FFFFFF"/></g><g id="SingleBlock_4_"><path d=" M 1170.41 735.31 L 1170.41 865.95 L 1217.67 865.95 L 1217.67 840.77 C 1217.67 811.94 1241.04 788.56 1269.88 788.56 L 1269.88 788.56 C 1298.71 788.56 1322.09 811.93 1322.09 840.77 L 1322.09 865.95 L 1369.35 865.95 L 1369.35 735.31 L 1170.41 735.31 Z" stroke="#000000" stroke-miterlimit="10" fill="#FFFFFF"/><path d=" M 1216.61 869.54 L 1170.9 869.54 C 1168.91 869.54 1167.3 867.93 1167.3 865.94 L 1167.3 865.94 C 1167.3 863.95 1168.91 862.34 1170.9 862.34 L 1216.61 862.34 C 1218.6 862.34 1220.21 863.95 1220.21 865.94 L 1220.21 865.94 C 1220.21 867.93 1218.6 869.54 1216.61 869.54 Z" stroke="#000000" stroke-miterlimit="10" fill="#FFFFFF"/><path d=" M 1368.32 869.54 L 1322.61 869.54 C 1320.62 869.54 1319.01 867.93 1319.01 865.94 L 1319.01 865.94 C 1319.01 863.95 1320.62 862.34 1322.61 862.34 L 1368.32 862.34 C 1370.31 862.34 1371.92 863.95 1371.92 865.94 L 1371.92 865.94 C 1371.93 867.93 1370.31 869.54 1368.32 869.54 Z" stroke="#000000" stroke-miterlimit="10" fill="#FFFFFF"/><path d=" M 1170.41 735.31 L 1156.05 706.23 L 1383.69 706.23 L 1369.34 735.31 Z" stroke="#000000" stroke-miterlimit="10" fill="#FFFFFF"/><path d=" M 1383.01 707.97 L 1156.74 707.97 C 1154.75 707.97 1153.14 706.36 1153.14 704.37 L 1153.14 704.37 C 1153.14 702.38 1154.75 700.77 1156.74 700.77 L 1383.01 700.77 C 1385 700.77 1386.61 702.38 1386.61 704.37 L 1386.61 704.37 C 1386.61 706.36 1384.99 707.97 1383.01 707.97 Z" stroke="#000000" stroke-miterlimit="10" fill="#FFFFFF"/><path d=" M 1170.41 671.69 L 1156.05 700.77 L 1383.69 700.77 L 1369.34 671.69 Z" stroke="#000000" stroke-miterlimit="10" fill="#FFFFFF"/><path d=" M 1269.87 576.28 C 1214.94 576.28 1170.4 619.44 1170.4 672.69 L 1369.33 672.69 C 1369.34 619.45 1324.8 576.28 1269.87 576.28 Z" stroke="#000000" stroke-miterlimit="10" fill="#FFFFFF"/><path d=" M 1369.27 675.29 L 1170.47 675.29 C 1168.48 675.29 1166.87 673.68 1166.87 671.69 L 1166.87 671.69 C 1166.87 669.7 1168.48 668.09 1170.47 668.09 L 1369.27 668.09 C 1371.26 668.09 1372.87 669.7 1372.87 671.69 L 1372.87 671.69 C 1372.87 673.68 1371.26 675.29 1369.27 675.29 Z" stroke="#000000" stroke-miterlimit="10" fill="#FFFFFF"/></g><g id="SingleBlock_3_"><path d=" M 566.43 347.87 L 566.43 633.23 L 669.66 633.23 L 669.66 578.22 C 669.66 515.24 720.72 464.18 783.7 464.18 L 783.7 464.18 C 846.68 464.18 897.74 515.24 897.74 578.22 L 897.74 633.23 L 1000.97 633.23 L 1000.97 347.87 L 566.43 347.87 Z" stroke="#000000" stroke-miterlimit="10" fill="#FFFFFF"/><path d=" M 667.37 641.1 L 567.53 641.1 C 563.18 641.1 559.66 637.58 559.66 633.23 L 559.66 633.23 C 559.66 628.88 563.18 625.36 567.53 625.36 L 667.37 625.36 C 671.72 625.36 675.24 628.88 675.24 633.23 L 675.24 633.23 C 675.24 637.57 671.71 641.1 667.37 641.1 Z" stroke="#000000" stroke-miterlimit="10" fill="#FFFFFF"/><path d=" M 998.76 641.1 L 898.92 641.1 C 894.57 641.1 891.05 637.58 891.05 633.23 L 891.05 633.23 C 891.05 628.88 894.57 625.36 898.92 625.36 L 998.76 625.36 C 1003.11 625.36 1006.63 628.88 1006.63 633.23 L 1006.63 633.23 C 1006.63 637.57 1003.11 641.1 998.76 641.1 Z" stroke="#000000" stroke-miterlimit="10" fill="#FFFFFF"/><path d=" M 566.43 347.87 L 535.08 284.35 L 1032.33 284.35 L 1000.98 347.87 Z" stroke="#000000" stroke-miterlimit="10" fill="#FFFFFF"/><path d=" M 1030.84 288.16 L 536.57 288.16 C 532.22 288.16 528.7 284.64 528.7 280.29 L 528.7 280.29 C 528.7 275.94 532.22 272.42 536.57 272.42 L 1030.83 272.42 C 1035.18 272.42 1038.7 275.94 1038.7 280.29 L 1038.7 280.29 C 1038.71 284.64 1035.18 288.16 1030.84 288.16 Z" stroke="#000000" stroke-miterlimit="10" fill="#FFFFFF"/><path d=" M 566.43 208.9 L 535.08 272.42 L 1032.33 272.42 L 1000.98 208.9 Z" stroke="#000000" stroke-miterlimit="10" fill="#FFFFFF"/><path d=" M 783.7 0.5 C 663.7 0.5 566.43 94.78 566.43 211.09 L 1000.97 211.09 C 1000.98 94.78 903.7 0.5 783.7 0.5 Z" stroke="#000000" stroke-miterlimit="10" fill="#FFFFFF"/><path d=" M 1000.83 216.77 L 566.58 216.77 C 562.23 216.77 558.71 213.25 558.71 208.9 L 558.71 208.9 C 558.71 204.55 562.23 201.03 566.58 201.03 L 1000.83 201.03 C 1005.18 201.03 1008.7 204.55 1008.7 208.9 L 1008.7 208.9 C 1008.7 213.25 1005.18 216.77 1000.83 216.77 Z" stroke="#000000" stroke-miterlimit="10" fill="#FFFFFF"/></g><g><path d=" M 688.71 1110.05 L 674.36 1080.97 L 902 1080.97 L 887.64 1110.05 Z" stroke="#000000" stroke-miterlimit="10" fill="#FFFFFF"/><path d=" M 901.31 1082.72 L 675.04 1082.72 C 673.05 1082.72 671.44 1081.11 671.44 1079.12 L 671.44 1079.12 C 671.44 1077.13 673.05 1075.52 675.04 1075.52 L 901.31 1075.52 C 903.3 1075.52 904.91 1077.13 904.91 1079.12 L 904.91 1079.12 C 904.92 1081.1 903.3 1082.72 901.31 1082.72 Z" stroke="#000000" stroke-miterlimit="10" fill="#FFFFFF"/><path d=" M 688.71 1109.53 L 674.36 1138.61 L 902 1138.61 L 887.64 1109.53 Z" stroke="#000000" stroke-miterlimit="10" fill="#FFFFFF"/><path d=" M 901.31 1136.86 L 675.04 1136.86 C 673.05 1136.86 671.44 1138.47 671.44 1140.46 L 671.44 1140.46 C 671.44 1142.45 673.05 1144.06 675.04 1144.06 L 901.31 1144.06 C 903.3 1144.06 904.91 1142.45 904.91 1140.46 L 904.91 1140.46 C 904.92 1138.47 903.3 1136.86 901.31 1136.86 Z" stroke="#000000" stroke-miterlimit="10" fill="#FFFFFF"/></g><g><g id="Body_11_"><g><path d=" M 501.18 751.48 L 501.18 862.33 L 542.42 862.33 L 542.42 840.96 C 542.42 816.49 562.82 796.66 587.98 796.66 L 587.98 796.66 C 613.14 796.66 633.54 816.49 633.54 840.96 L 633.54 862.33 L 674.78 862.33 L 674.78 751.48" fill="#FFFFFF"/></g><line x1="674.77" y1="751.48" x2="501.18" y2="751.48" stroke="#000000" stroke-miterlimit="10" fill="#FFFFFF"/><path d="" stroke="#000000" stroke-miterlimit="10" fill="#FFFFFF"/><path d="" stroke="#000000" stroke-miterlimit="10" fill="#FFFFFF"/><path d=" M 501.18 862.34 L 542.42 862.34 L 542.42 840.97 C 542.42 816.5 562.82 796.67 587.98 796.67 L 587.98 796.67 C 613.14 796.67 633.54 816.5 633.54 840.97 L 633.54 862.34 L 674.78 862.34" stroke="#000000" stroke-miterlimit="10" fill="none"/><path d="" stroke="#000000" stroke-miterlimit="10" fill="#FFFFFF"/><path d="" stroke="#000000" stroke-miterlimit="10" fill="#FFFFFF"/></g><g id="Body_10_"><g><path d=" M 634.25 751.48 L 634.25 862.33 L 675.49 862.33 L 675.49 840.96 C 675.49 816.49 695.89 796.66 721.05 796.66 L 721.05 796.66 C 746.21 796.66 766.61 816.49 766.61 840.96 L 766.61 862.33 L 807.85 862.33 L 807.85 751.48" fill="#FFFFFF"/></g><line x1="807.84" y1="751.48" x2="634.25" y2="751.48" stroke="#000000" stroke-miterlimit="10" fill="#FFFFFF"/><path d="" stroke="#000000" stroke-miterlimit="10" fill="#FFFFFF"/><path d="" stroke="#000000" stroke-miterlimit="10" fill="#FFFFFF"/><path d=" M 634.25 862.34 L 675.49 862.34 L 675.49 840.97 C 675.49 816.5 695.89 796.67 721.05 796.67 L 721.05 796.67 C 746.21 796.67 766.61 816.5 766.61 840.97 L 766.61 862.34 L 807.85 862.34" stroke="#000000" stroke-miterlimit="10" fill="none"/><path d="" stroke="#000000" stroke-miterlimit="10" fill="#FFFFFF"/><path d="" stroke="#000000" stroke-miterlimit="10" fill="#FFFFFF"/></g><g id="Body_9_"><g><path d=" M 768.3 751.48 L 768.3 862.33 L 809.54 862.33 L 809.54 840.96 C 809.54 816.49 829.94 796.66 855.1 796.66 L 855.1 796.66 C 880.26 796.66 900.66 816.49 900.66 840.96 L 900.66 862.33 L 941.9 862.33 L 941.9 751.48" fill="#FFFFFF"/></g><line x1="941.89" y1="751.48" x2="768.3" y2="751.48" stroke="#000000" stroke-miterlimit="10" fill="#FFFFFF"/><path d="" stroke="#000000" stroke-miterlimit="10" fill="#FFFFFF"/><path d="" stroke="#000000" stroke-miterlimit="10" fill="#FFFFFF"/><path d=" M 768.3 862.34 L 809.54 862.34 L 809.54 840.97 C 809.54 816.5 829.94 796.67 855.1 796.67 L 855.1 796.67 C 880.26 796.67 900.66 816.5 900.66 840.97 L 900.66 862.34 L 941.9 862.34" stroke="#000000" stroke-miterlimit="10" fill="none"/><path d="" stroke="#000000" stroke-miterlimit="10" fill="#FFFFFF"/><path d="" stroke="#000000" stroke-miterlimit="10" fill="#FFFFFF"/></g><g id="Body_8_"><g><path d=" M 901.39 751.48 L 901.39 862.33 L 942.63 862.33 L 942.63 840.96 C 942.63 816.49 963.03 796.66 988.19 796.66 L 988.19 796.66 C 1013.35 796.66 1033.75 816.49 1033.75 840.96 L 1033.75 862.33 L 1074.99 862.33 L 1074.99 751.48" fill="#FFFFFF"/></g><line x1="1074.99" y1="751.48" x2="901.39" y2="751.48" stroke="#000000" stroke-miterlimit="10" fill="#FFFFFF"/><path d="" stroke="#000000" stroke-miterlimit="10" fill="#FFFFFF"/><path d="" stroke="#000000" stroke-miterlimit="10" fill="#FFFFFF"/><path d=" M 901.39 862.34 L 942.63 862.34 L 942.63 840.97 C 942.63 816.5 963.03 796.67 988.19 796.67 L 988.19 796.67 C 1013.35 796.67 1033.75 816.5 1033.75 840.97 L 1033.75 862.34 L 1074.99 862.34" stroke="#000000" stroke-miterlimit="10" fill="none"/><path d="" stroke="#000000" stroke-miterlimit="10" fill="#FFFFFF"/><path d="" stroke="#000000" stroke-miterlimit="10" fill="#FFFFFF"/></g><g id="Body_7_"><g><path d=" M 366.97 751.48 L 366.97 864.48 L 408.21 864.48 L 408.21 840.96 C 408.21 816.49 428.61 796.66 453.77 796.66 L 453.77 796.66 C 478.93 796.66 499.33 816.49 499.33 840.96 L 499.33 862.33 L 540.57 862.33 L 540.57 751.48" fill="#FFFFFF"/></g><line x1="540.57" y1="751.48" x2="366.97" y2="751.48" stroke="#000000" stroke-miterlimit="10" fill="#FFFFFF"/><path d="" stroke="#000000" stroke-miterlimit="10" fill="#FFFFFF"/><path d="" stroke="#000000" stroke-miterlimit="10" fill="#FFFFFF"/><path d=" M 366.97 864.49 L 408.21 864.49 L 408.21 840.97 C 408.21 816.5 428.61 796.67 453.77 796.67 L 453.77 796.67 C 478.93 796.67 499.33 816.5 499.33 840.97 L 499.33 862.34 L 540.57 862.34" stroke="#000000" stroke-miterlimit="10" fill="none"/><path d="" stroke="#000000" stroke-miterlimit="10" fill="#FFFFFF"/><path d="" stroke="#000000" stroke-miterlimit="10" fill="#FFFFFF"/></g><g id="Body_6_"><g><path d=" M 1036.31 751.48 L 1036.31 862.33 L 1077.55 862.33 L 1077.55 840.96 C 1077.55 816.49 1097.95 796.66 1123.11 796.66 L 1123.11 796.66 C 1148.27 796.66 1168.67 816.49 1168.67 840.96 L 1168.67 862.33 L 1209.91 862.33 L 1209.91 751.48" fill="#FFFFFF"/></g><line x1="1209.9" y1="751.48" x2="1036.31" y2="751.48" stroke="#000000" stroke-miterlimit="10" fill="#FFFFFF"/><path d="" stroke="#000000" stroke-miterlimit="10" fill="#FFFFFF"/><path d="" stroke="#000000" stroke-miterlimit="10" fill="#FFFFFF"/><path d=" M 1036.31 862.34 L 1077.55 862.34 L 1077.55 840.97 C 1077.55 816.5 1097.95 796.67 1123.11 796.67 L 1123.11 796.67 C 1148.27 796.67 1168.67 816.5 1168.67 840.97 L 1168.67 862.34 L 1209.91 862.34" stroke="#000000" stroke-miterlimit="10" fill="none"/><path d="" stroke="#000000" stroke-miterlimit="10" fill="#FFFFFF"/><path d="" stroke="#000000" stroke-miterlimit="10" fill="#FFFFFF"/></g></g></svg>